<svg width="44" height="44" viewBox="0 0 54 54" fill="none" xmlns="http://www.w3.org/2000/svg">
<circle cx="27" cy="27" r="27" fill="#28A9F2"/>
<path d="M24.7895 16C17.421 16 13 21.9108 13 24.8665C13 27.8222 14.4735 30.0388 17.421 30.0388C20.3685 30.0388 21.8426 30.7773 21.8426 32.9939C21.8426 35.949 24.0528 38.1656 27.0003 38.1656C36.5796 38.1656 41 32.9939 41 27.8222C40.9994 18.9557 33.6297 16 24.7895 16ZM22.9474 18.9557C23.1896 18.956 23.4294 19.004 23.653 19.097C23.8767 19.19 24.0799 19.3261 24.2509 19.4976C24.422 19.6691 24.5576 19.8726 24.65 20.0965C24.7424 20.3204 24.7898 20.5603 24.7895 20.8025C24.7895 21.8233 23.9647 22.6499 22.9474 22.6499C21.9301 22.6499 21.1052 21.8227 21.1052 20.8025C21.1049 20.5603 21.1523 20.3204 21.2448 20.0965C21.3372 19.8726 21.4728 19.6691 21.6438 19.4976C21.8149 19.3261 22.018 19.19 22.2417 19.097C22.4654 19.004 22.7052 18.956 22.9474 18.9557ZM28.8413 18.9557C29.0835 18.956 29.3233 19.004 29.5469 19.097C29.7706 19.19 29.9737 19.3261 30.1448 19.4976C30.3159 19.6691 30.4515 19.8726 30.5439 20.0965C30.6363 20.3204 30.6837 20.5603 30.6834 20.8025C30.6838 21.0448 30.6364 21.2847 30.544 21.5087C30.4517 21.7327 30.3161 21.9362 30.145 22.1078C29.9739 22.2793 29.7708 22.4155 29.5471 22.5085C29.3234 22.6015 29.0835 22.6496 28.8413 22.6499C28.599 22.6495 28.3593 22.6014 28.1356 22.5083C27.912 22.4153 27.7089 22.2791 27.5379 22.1076C27.3669 21.936 27.2313 21.7325 27.139 21.5086C27.0467 21.2846 26.9993 21.0447 26.9997 20.8025C26.9991 20.3134 27.1927 19.8441 27.5381 19.4978C27.8834 19.1514 28.3522 18.9565 28.8413 18.9557ZM34.7363 21.9108C34.9786 21.911 35.2185 21.959 35.4423 22.052C35.666 22.145 35.8693 22.2811 36.0404 22.4527C36.2116 22.6242 36.3472 22.8278 36.4396 23.0518C36.532 23.2758 36.5794 23.5159 36.579 23.7582C36.5794 24.0005 36.532 24.2404 36.4396 24.4644C36.3472 24.6884 36.2115 24.8919 36.0404 25.0635C35.8693 25.235 35.666 25.3711 35.4422 25.464C35.2185 25.5569 34.9786 25.6048 34.7363 25.605C34.4941 25.6047 34.2543 25.5568 34.0306 25.4638C33.807 25.3709 33.6038 25.2347 33.4328 25.0632C33.2618 24.8917 33.1262 24.6882 33.0339 24.4642C32.9416 24.2403 32.8943 24.0004 32.8948 23.7582C32.8943 23.5159 32.9416 23.276 33.0339 23.052C33.1262 22.8281 33.2617 22.6245 33.4327 22.4529C33.6038 22.2814 33.8069 22.1452 34.0306 22.0522C34.2543 21.9591 34.4941 21.9111 34.7363 21.9108ZM17.7897 23.3889C18.0318 23.3892 18.2716 23.4371 18.4952 23.53C18.7188 23.6229 18.9219 23.759 19.093 23.9305C19.264 24.1019 19.3995 24.3054 19.4919 24.5293C19.5842 24.7531 19.6316 24.993 19.6312 25.2351C19.6312 26.256 18.8064 27.0825 17.7897 27.0825C16.7729 27.0825 15.9475 26.2554 15.9475 25.2351C15.9471 24.7461 16.1409 24.2768 16.4863 23.9306C16.8318 23.5844 17.3006 23.3895 17.7897 23.3889ZM26.9997 30.7773C28.2206 30.7773 29.2099 31.7689 29.2099 32.9945C29.2099 34.2183 28.2206 35.2105 26.9997 35.2105C25.7788 35.2105 24.7895 34.2183 24.7895 32.9945C24.789 32.7038 24.8457 32.4158 24.9565 32.147C25.0673 31.8782 25.23 31.6339 25.4352 31.428C25.6405 31.2221 25.8843 31.0586 26.1527 30.947C26.4212 30.8353 26.709 30.7777 26.9997 30.7773Z" fill="white"/>
</svg>
