<svg width="26" height="26" viewBox="0 0 26 26" fill="none" xmlns="http://www.w3.org/2000/svg">
<path d="M10.9827 6.12656L9.95799 5.21391C9.34975 4.67215 8.45927 4.59054 7.76269 5.01271L7.04812 5.44578C5.72602 6.24706 5.40165 8.02378 6.35532 9.24053L14.4933 19.6235C15.4503 20.8444 17.0726 21.3299 18.5429 20.8354L19.7735 20.4215C20.593 20.1458 20.9332 19.1717 20.4635 18.4457L19.2012 16.495C18.7484 15.7951 17.9717 15.3726 17.1381 15.3726H15.9333C15.3161 15.3726 14.7317 15.0941 14.3429 14.6148L11.5311 11.1483C11.1495 10.6779 11.0217 10.0507 11.1886 9.46845L11.5677 8.14624C11.7769 7.41652 11.5495 6.63146 10.9827 6.12656Z" fill="#373A3B" stroke="#373A3B" stroke-width="0.0240917"/>
<circle cx="13" cy="13" r="12.5" stroke="#373A3B"/>
</svg>
