<svg width="28" height="28" viewBox="0 0 28 28" fill="none" xmlns="http://www.w3.org/2000/svg">
<circle cx="14" cy="14" r="13.5" stroke="#373A3B"/>
<path d="M14.5887 14.317V18.6259C14.4194 18.83 14.1581 19.0516 13.8046 19.2906C13.4511 19.5245 12.9956 19.7262 12.438 19.8955C11.8804 20.0647 11.2058 20.1494 10.4142 20.1494C9.7122 20.1494 9.07246 20.0348 8.49494 19.8058C7.91743 19.5718 7.41958 19.2308 7.00138 18.7827C6.58816 18.3347 6.26953 17.787 6.0455 17.1398C5.82146 16.4876 5.70944 15.7433 5.70944 14.9069V14.2274C5.70944 13.391 5.81648 12.6467 6.03056 11.9945C6.24962 11.3423 6.56078 10.7922 6.96404 10.3441C7.3673 9.89602 7.84773 9.55499 8.40533 9.321C8.96293 9.08701 9.58276 8.97001 10.2648 8.97001C11.2107 8.97001 11.9874 9.12435 12.5948 9.43302C13.2022 9.73671 13.6652 10.1599 13.9838 10.7026C14.3074 11.2402 14.5065 11.8576 14.5812 12.5546H12.4081C12.3533 12.1862 12.2488 11.865 12.0944 11.5912C11.9401 11.3174 11.7186 11.1033 11.4298 10.949C11.146 10.7947 10.7776 10.7175 10.3246 10.7175C9.95117 10.7175 9.61761 10.7947 9.32387 10.949C9.03512 11.0983 8.79117 11.3199 8.59203 11.6136C8.39288 11.9074 8.24104 12.2708 8.13649 12.7039C8.03194 13.1371 7.97966 13.6399 7.97966 14.2124V14.9069C7.97966 15.4745 8.03443 15.9773 8.14396 16.4154C8.25349 16.8486 8.41529 17.2145 8.62937 17.5132C8.84842 17.8069 9.11726 18.0285 9.43589 18.1778C9.75452 18.3272 10.1254 18.4019 10.5486 18.4019C10.9021 18.4019 11.1958 18.372 11.4298 18.3123C11.6688 18.2525 11.8604 18.1803 12.0048 18.0957C12.1542 18.0061 12.2687 17.9215 12.3483 17.8418V15.9151H10.3022V14.317H14.5887ZM23.2962 13.9436V15.818H15.8433V13.9436H23.2962ZM20.5928 10.9938V18.9097H18.5541V10.9938H20.5928Z" fill="#373A3B"/>
</svg>
