<svg width="165" height="28" viewBox="0 0 165 28" fill="none" xmlns="http://www.w3.org/2000/svg">
<path d="M5.65625 24H0.228516V4.3125H5.65625V13.6914C7.33333 12.4062 8.89648 10.9798 10.3457 9.41211C11.804 7.8444 13.0573 6.13997 14.1055 4.29883H17.8105C16.8444 5.94857 15.737 7.48893 14.4883 8.91992C13.2396 10.3509 11.8815 11.6771 10.4141 12.8984L18.2754 24H12.6152L6.69531 15.6328C6.52214 15.7513 6.34896 15.8652 6.17578 15.9746C6.01172 16.084 5.83854 16.1934 5.65625 16.3027V24ZM25.0156 4.39453C25.0156 4.74089 24.9473 5.06901 24.8105 5.37891C24.6829 5.6888 24.5052 5.95768 24.2773 6.18555C24.0495 6.41341 23.7806 6.5957 23.4707 6.73242C23.1608 6.86003 22.8327 6.92383 22.4863 6.92383C22.14 6.92383 21.8118 6.86003 21.502 6.73242C21.2012 6.5957 20.9368 6.41341 20.709 6.18555C20.4811 5.95768 20.2988 5.6888 20.1621 5.37891C20.0345 5.06901 19.9707 4.74089 19.9707 4.39453C19.9707 4.04818 20.0345 3.72461 20.1621 3.42383C20.2988 3.11393 20.4811 2.84505 20.709 2.61719C20.9368 2.38932 21.2012 2.21159 21.502 2.08398C21.8118 1.94727 22.14 1.87891 22.4863 1.87891C22.8327 1.87891 23.1608 1.94727 23.4707 2.08398C23.7806 2.21159 24.0495 2.38932 24.2773 2.61719C24.5052 2.84505 24.6829 3.11393 24.8105 3.42383C24.9473 3.72461 25.0156 4.04818 25.0156 4.39453ZM24.8105 24H20.1758V8.22266H24.8105V24ZM44.6074 24H42.8301L40.7793 20.5684C40.5788 21.1426 40.3008 21.6621 39.9453 22.127C39.599 22.5918 39.1934 22.9928 38.7285 23.3301C38.2728 23.6582 37.7669 23.9134 37.2109 24.0957C36.6641 24.278 36.0853 24.3691 35.4746 24.3691C34.2715 24.3691 33.196 24.1549 32.248 23.7266C31.3001 23.2982 30.498 22.7148 29.8418 21.9766C29.1855 21.2292 28.6842 20.3542 28.3379 19.3516C27.9915 18.349 27.8184 17.2734 27.8184 16.125C27.8184 14.9766 27.9915 13.901 28.3379 12.8984C28.6842 11.8958 29.1855 11.0254 29.8418 10.2871C30.498 9.54883 31.3001 8.96549 32.248 8.53711C33.196 8.10872 34.2715 7.89453 35.4746 7.89453C36.3952 7.89453 37.2383 8.07227 38.0039 8.42773C38.7786 8.7832 39.4395 9.33919 39.9863 10.0957V2.39844H44.6074V24ZM39.959 16.125C39.959 15.7604 39.9316 15.3594 39.877 14.9219C39.8223 14.4844 39.7357 14.0423 39.6172 13.5957C39.4987 13.1491 39.3438 12.7161 39.1523 12.2969C38.9609 11.8776 38.724 11.5039 38.4414 11.1758C38.168 10.8477 37.8444 10.5879 37.4707 10.3965C37.1061 10.196 36.6868 10.0957 36.2129 10.0957C35.6934 10.0957 35.2422 10.1914 34.8594 10.3828C34.4766 10.5651 34.1484 10.8158 33.875 11.1348C33.6016 11.4447 33.3737 11.8047 33.1914 12.2148C33.0182 12.625 32.8815 13.0534 32.7812 13.5C32.681 13.9466 32.6081 14.3978 32.5625 14.8535C32.526 15.3001 32.5078 15.724 32.5078 16.125C32.5078 16.526 32.526 16.9544 32.5625 17.4102C32.6081 17.8568 32.681 18.3034 32.7812 18.75C32.8815 19.1966 33.0182 19.6296 33.1914 20.0488C33.3737 20.459 33.6016 20.8236 33.875 21.1426C34.1484 21.4525 34.4766 21.7031 34.8594 21.8945C35.2422 22.0768 35.6934 22.168 36.2129 22.168C36.7324 22.168 37.1882 22.0768 37.5801 21.8945C37.972 21.7122 38.3047 21.4661 38.5781 21.1562C38.8607 20.8372 39.0885 20.4772 39.2617 20.0762C39.444 19.666 39.5853 19.2376 39.6855 18.791C39.7858 18.3353 39.8542 17.8796 39.8906 17.4238C39.9362 16.9681 39.959 16.5352 39.959 16.125ZM62.0527 18.9551C62.0527 19.6478 61.9525 20.263 61.752 20.8008C61.5514 21.3385 61.278 21.8079 60.9316 22.209C60.5853 22.6009 60.1751 22.9336 59.7012 23.207C59.2272 23.4714 58.7168 23.6855 58.1699 23.8496C57.6322 24.0137 57.0671 24.1322 56.4746 24.2051C55.8822 24.278 55.2943 24.3145 54.7109 24.3145C53.9271 24.3145 53.2344 24.2643 52.6328 24.1641C52.0312 24.0638 51.457 23.9043 50.9102 23.6855C50.3633 23.4577 49.8164 23.166 49.2695 22.8105C48.7318 22.4551 48.1302 22.0221 47.4648 21.5117L50.1582 19.3105C50.4043 19.7754 50.7279 20.1992 51.1289 20.582C51.5391 20.9557 51.9629 21.2793 52.4004 21.5527C52.8379 21.8262 53.2617 22.0358 53.6719 22.1816C54.082 22.3275 54.4147 22.4004 54.6699 22.4004C54.8796 22.4004 55.1165 22.3958 55.3809 22.3867C55.6452 22.3685 55.9141 22.3411 56.1875 22.3047C56.4609 22.2591 56.7298 22.1953 56.9941 22.1133C57.2585 22.0312 57.4909 21.9219 57.6914 21.7852C57.901 21.6393 58.0651 21.4616 58.1836 21.252C58.3112 21.0332 58.375 20.7734 58.375 20.4727C58.375 20.1628 58.293 19.8939 58.1289 19.666C57.974 19.429 57.7689 19.224 57.5137 19.0508C57.2585 18.8776 56.9668 18.7318 56.6387 18.6133C56.3105 18.4948 55.9779 18.39 55.6406 18.2988C55.3125 18.2077 54.9935 18.1302 54.6836 18.0664C54.3737 17.9935 54.1048 17.9251 53.877 17.8613C53.4577 17.7428 53.0156 17.6243 52.5508 17.5059C52.0859 17.3783 51.6257 17.237 51.1699 17.082C50.7142 16.918 50.2767 16.7266 49.8574 16.5078C49.4473 16.2891 49.0827 16.0293 48.7637 15.7285C48.4538 15.4186 48.2031 15.0586 48.0117 14.6484C47.8294 14.2292 47.7383 13.7415 47.7383 13.1855C47.7383 12.1647 47.9388 11.3125 48.3398 10.6289C48.75 9.9362 49.2878 9.38477 49.9531 8.97461C50.6185 8.55534 51.375 8.25911 52.2227 8.08594C53.0703 7.91276 53.9316 7.82617 54.8066 7.82617C55.4082 7.82617 56.0417 7.88997 56.707 8.01758C57.3724 8.13607 58.0195 8.31836 58.6484 8.56445C59.2773 8.80143 59.8652 9.0931 60.4121 9.43945C60.959 9.78581 61.4147 10.1823 61.7793 10.6289L59.0859 12.8438C58.8854 12.2969 58.6211 11.8275 58.293 11.4355C57.974 11.0436 57.623 10.7246 57.2402 10.4785C56.8665 10.2233 56.4792 10.0365 56.0781 9.91797C55.6862 9.79948 55.3216 9.74023 54.9844 9.74023C54.6562 9.74023 54.2871 9.75391 53.877 9.78125C53.4668 9.80859 53.0794 9.88607 52.7148 10.0137C52.3594 10.1413 52.054 10.3372 51.7988 10.6016C51.5527 10.8568 51.4297 11.2122 51.4297 11.668C51.4297 11.9961 51.5026 12.2786 51.6484 12.5156C51.8034 12.7435 52.0039 12.944 52.25 13.1172C52.4961 13.2812 52.7741 13.4225 53.084 13.541C53.403 13.6504 53.7266 13.7507 54.0547 13.8418C54.3828 13.9238 54.7018 13.9967 55.0117 14.0605C55.3216 14.1243 55.5996 14.1927 55.8457 14.2656C56.265 14.3841 56.707 14.5072 57.1719 14.6348C57.6458 14.7533 58.1107 14.8945 58.5664 15.0586C59.0221 15.2135 59.4596 15.4004 59.8789 15.6191C60.3073 15.8288 60.681 16.0885 61 16.3984C61.319 16.7083 61.5742 17.0729 61.7656 17.4922C61.957 17.9023 62.0527 18.39 62.0527 18.9551ZM81.4121 17.9844C81.4121 18.832 81.3027 19.5794 81.084 20.2266C80.8743 20.8737 80.5736 21.4342 80.1816 21.9082C79.7988 22.3822 79.3431 22.7786 78.8145 23.0977C78.2858 23.4167 77.707 23.6719 77.0781 23.8633C76.4583 24.0547 75.7975 24.1914 75.0957 24.2734C74.403 24.3555 73.6966 24.3965 72.9766 24.3965C72.0286 24.3965 71.1536 24.3236 70.3516 24.1777C69.5495 24.041 68.793 23.8223 68.082 23.5215C67.3802 23.2116 66.7012 22.8151 66.0449 22.332C65.3978 21.849 64.7507 21.2611 64.1035 20.5684L66.8926 17.7383C67.1478 18.3672 67.4987 18.9505 67.9453 19.4883C68.3919 20.0169 68.8796 20.4727 69.4082 20.8555C69.946 21.2383 70.502 21.5391 71.0762 21.7578C71.6504 21.9766 72.1927 22.0859 72.7031 22.0859C73.3047 22.0859 73.8698 22.0449 74.3984 21.9629C74.9271 21.8717 75.3874 21.7259 75.7793 21.5254C76.1712 21.3249 76.4766 21.0605 76.6953 20.7324C76.9232 20.3952 77.0371 19.9759 77.0371 19.4746C77.0371 19.0918 76.9505 18.7637 76.7773 18.4902C76.6042 18.2168 76.3763 17.9844 76.0938 17.793C75.8203 17.5924 75.5059 17.4238 75.1504 17.2871C74.7949 17.1504 74.4303 17.0365 74.0566 16.9453C73.6921 16.8451 73.332 16.7585 72.9766 16.6855C72.6211 16.6035 72.3066 16.5215 72.0332 16.4395C71.4954 16.2845 70.9349 16.1204 70.3516 15.9473C69.7682 15.765 69.194 15.5599 68.6289 15.332C68.0638 15.1042 67.526 14.8444 67.0156 14.5527C66.5143 14.252 66.0723 13.901 65.6895 13.5C65.3066 13.0898 65.0013 12.6204 64.7734 12.0918C64.5456 11.554 64.4316 10.9388 64.4316 10.2461C64.4316 9.41667 64.5319 8.68294 64.7324 8.04492C64.9421 7.39779 65.2337 6.83724 65.6074 6.36328C65.9811 5.88932 66.4232 5.49284 66.9336 5.17383C67.444 4.8457 68.0046 4.58594 68.6152 4.39453C69.2259 4.19401 69.873 4.05273 70.5566 3.9707C71.2493 3.87956 71.9557 3.83398 72.6758 3.83398C73.6602 3.83398 74.5534 3.92513 75.3555 4.10742C76.1667 4.28971 76.9141 4.54948 77.5977 4.88672C78.2812 5.22396 78.9056 5.62956 79.4707 6.10352C80.0449 6.56836 80.5827 7.08789 81.084 7.66211L78.2949 10.4922C78.0762 9.83594 77.7708 9.24349 77.3789 8.71484C76.9961 8.1862 76.5677 7.73503 76.0938 7.36133C75.6198 6.97852 75.123 6.68685 74.6035 6.48633C74.084 6.27669 73.5827 6.17188 73.0996 6.17188C72.4707 6.17188 71.8919 6.21745 71.3633 6.30859C70.8346 6.39062 70.3789 6.5319 69.9961 6.73242C69.6224 6.92383 69.3307 7.18815 69.1211 7.52539C68.9115 7.85352 68.8066 8.26367 68.8066 8.75586C68.8066 9.14779 68.8841 9.48047 69.0391 9.75391C69.194 10.0273 69.3991 10.2598 69.6543 10.4512C69.9186 10.6426 70.2148 10.8021 70.543 10.9297C70.8711 11.0482 71.2083 11.153 71.5547 11.2441C71.9102 11.3353 72.2565 11.4173 72.5938 11.4902C72.9401 11.554 73.2546 11.627 73.5371 11.709C74.084 11.8639 74.6582 12.028 75.2598 12.2012C75.8613 12.3743 76.4538 12.5794 77.0371 12.8164C77.6204 13.0443 78.1764 13.3086 78.7051 13.6094C79.2337 13.9102 79.6986 14.2702 80.0996 14.6895C80.5007 15.0996 80.8197 15.5781 81.0566 16.125C81.2936 16.6628 81.4121 17.2826 81.4121 17.9844ZM98.9121 12.1191L96.916 12.9121C96.597 11.9095 96.0638 11.1393 95.3164 10.6016C94.569 10.0638 93.6712 9.79492 92.623 9.79492C92.0579 9.79492 91.5521 9.88607 91.1055 10.0684C90.668 10.2415 90.2806 10.4831 89.9434 10.793C89.6152 11.1029 89.3327 11.4629 89.0957 11.873C88.8678 12.2832 88.681 12.7207 88.5352 13.1855C88.3893 13.6504 88.2845 14.1335 88.2207 14.6348C88.1569 15.127 88.125 15.6055 88.125 16.0703C88.125 16.5716 88.1523 17.0775 88.207 17.5879C88.2617 18.0983 88.3529 18.5905 88.4805 19.0645C88.6172 19.5293 88.7949 19.9668 89.0137 20.377C89.2324 20.778 89.5059 21.1289 89.834 21.4297C90.1712 21.7305 90.5677 21.9674 91.0234 22.1406C91.4883 22.3138 92.0215 22.4004 92.623 22.4004C93.1061 22.4004 93.5664 22.3275 94.0039 22.1816C94.4414 22.0358 94.8424 21.8307 95.207 21.5664C95.5716 21.3021 95.8952 20.9876 96.1777 20.623C96.4603 20.2585 96.6836 19.8529 96.8477 19.4062L98.8574 20.1445C98.5566 20.8646 98.1556 21.4889 97.6543 22.0176C97.1621 22.5371 96.6016 22.9701 95.9727 23.3164C95.3438 23.6536 94.6693 23.9043 93.9492 24.0684C93.2292 24.2324 92.5 24.3145 91.7617 24.3145C90.5677 24.3145 89.4603 24.1139 88.4395 23.7129C87.4186 23.3027 86.5345 22.7331 85.7871 22.0039C85.0488 21.2656 84.4701 20.3952 84.0508 19.3926C83.6315 18.3809 83.4219 17.2734 83.4219 16.0703C83.4219 14.8581 83.627 13.7461 84.0371 12.7344C84.4564 11.7227 85.0352 10.8522 85.7734 10.123C86.5117 9.39388 87.3913 8.82878 88.4121 8.42773C89.4329 8.02669 90.5495 7.82617 91.7617 7.82617C92.5273 7.82617 93.2747 7.91276 94.0039 8.08594C94.7331 8.25 95.4076 8.50977 96.0273 8.86523C96.6562 9.21159 97.2168 9.65365 97.709 10.1914C98.2103 10.7292 98.6113 11.3717 98.9121 12.1191ZM117.793 14.9492C117.793 16.0156 117.661 17.1276 117.396 18.2852C117.141 19.4427 116.781 20.5775 116.316 21.6895C115.852 22.8014 115.296 23.8451 114.648 24.8203C114.001 25.8047 113.29 26.6523 112.516 27.3633L110.779 26.4199C111.025 25.9642 111.258 25.4538 111.477 24.8887C111.695 24.3236 111.891 23.7266 112.064 23.0977C112.247 22.4596 112.406 21.8034 112.543 21.1289C112.689 20.4544 112.807 19.7891 112.898 19.1328C112.999 18.4674 113.072 17.8249 113.117 17.2051C113.172 16.5762 113.199 15.9928 113.199 15.4551C113.199 15.0996 113.186 14.7214 113.158 14.3203C113.131 13.9102 113.072 13.5046 112.98 13.1035C112.898 12.6934 112.785 12.3014 112.639 11.9277C112.493 11.554 112.297 11.2259 112.051 10.9434C111.814 10.6608 111.522 10.4329 111.176 10.2598C110.839 10.0866 110.438 10 109.973 10C109.517 10 109.111 10.1048 108.756 10.3145C108.4 10.515 108.086 10.7839 107.812 11.1211C107.539 11.4492 107.302 11.8275 107.102 12.2559C106.91 12.6842 106.751 13.1263 106.623 13.582C106.505 14.0286 106.418 14.4707 106.363 14.9082C106.309 15.3457 106.281 15.7376 106.281 16.084V24H101.646V2.39844H106.268V10.5332C106.86 9.66732 107.585 9.00195 108.441 8.53711C109.307 8.06315 110.264 7.82617 111.312 7.82617C112.406 7.82617 113.359 8.00391 114.17 8.35938C114.981 8.71484 115.656 9.21159 116.193 9.84961C116.731 10.4785 117.132 11.2305 117.396 12.1055C117.661 12.9714 117.793 13.9193 117.793 14.9492ZM137.521 16.0703C137.521 16.8906 137.412 17.6608 137.193 18.3809C136.975 19.1009 136.669 19.7663 136.277 20.377C135.895 20.9876 135.43 21.5391 134.883 22.0312C134.336 22.5143 133.734 22.9245 133.078 23.2617C132.431 23.599 131.734 23.8587 130.986 24.041C130.248 24.2233 129.487 24.3145 128.703 24.3145C127.919 24.3145 127.158 24.2233 126.42 24.041C125.682 23.8587 124.984 23.599 124.328 23.2617C123.681 22.9245 123.084 22.5143 122.537 22.0312C121.99 21.5391 121.521 20.9876 121.129 20.377C120.746 19.7663 120.445 19.1009 120.227 18.3809C120.008 17.6517 119.898 16.8815 119.898 16.0703C119.898 15.2591 120.008 14.4935 120.227 13.7734C120.445 13.0443 120.746 12.3743 121.129 11.7637C121.521 11.153 121.99 10.6061 122.537 10.123C123.084 9.63086 123.681 9.21615 124.328 8.87891C124.984 8.54167 125.682 8.2819 126.42 8.09961C127.158 7.91732 127.919 7.82617 128.703 7.82617C129.487 7.82617 130.248 7.91732 130.986 8.09961C131.734 8.2819 132.431 8.54167 133.078 8.87891C133.734 9.21615 134.336 9.63086 134.883 10.123C135.43 10.6061 135.895 11.153 136.277 11.7637C136.669 12.3743 136.975 13.0443 137.193 13.7734C137.412 14.4935 137.521 15.2591 137.521 16.0703ZM132.818 16.0703C132.818 15.6328 132.791 15.1725 132.736 14.6895C132.691 14.1973 132.609 13.7188 132.49 13.2539C132.372 12.7799 132.208 12.3288 131.998 11.9004C131.798 11.4629 131.547 11.0846 131.246 10.7656C130.945 10.4375 130.585 10.1777 130.166 9.98633C129.747 9.78581 129.259 9.68555 128.703 9.68555C128.174 9.68555 127.705 9.78581 127.295 9.98633C126.885 10.1868 126.525 10.4557 126.215 10.793C125.914 11.1211 125.659 11.5039 125.449 11.9414C125.249 12.3789 125.085 12.8346 124.957 13.3086C124.829 13.7734 124.738 14.2474 124.684 14.7305C124.629 15.2044 124.602 15.651 124.602 16.0703C124.602 16.4896 124.629 16.9408 124.684 17.4238C124.738 17.8978 124.829 18.3717 124.957 18.8457C125.085 19.3197 125.249 19.7754 125.449 20.2129C125.659 20.6413 125.914 21.0241 126.215 21.3613C126.525 21.6895 126.885 21.9538 127.295 22.1543C127.705 22.3548 128.174 22.4551 128.703 22.4551C129.25 22.4551 129.733 22.3594 130.152 22.168C130.572 21.9674 130.932 21.7031 131.232 21.375C131.542 21.0469 131.798 20.6686 131.998 20.2402C132.199 19.8118 132.358 19.3607 132.477 18.8867C132.604 18.4128 132.691 17.9342 132.736 17.4512C132.791 16.9681 132.818 16.5078 132.818 16.0703ZM157.127 16.0703C157.127 16.8906 157.018 17.6608 156.799 18.3809C156.58 19.1009 156.275 19.7663 155.883 20.377C155.5 20.9876 155.035 21.5391 154.488 22.0312C153.941 22.5143 153.34 22.9245 152.684 23.2617C152.036 23.599 151.339 23.8587 150.592 24.041C149.854 24.2233 149.092 24.3145 148.309 24.3145C147.525 24.3145 146.764 24.2233 146.025 24.041C145.287 23.8587 144.59 23.599 143.934 23.2617C143.286 22.9245 142.689 22.5143 142.143 22.0312C141.596 21.5391 141.126 20.9876 140.734 20.377C140.352 19.7663 140.051 19.1009 139.832 18.3809C139.613 17.6517 139.504 16.8815 139.504 16.0703C139.504 15.2591 139.613 14.4935 139.832 13.7734C140.051 13.0443 140.352 12.3743 140.734 11.7637C141.126 11.153 141.596 10.6061 142.143 10.123C142.689 9.63086 143.286 9.21615 143.934 8.87891C144.59 8.54167 145.287 8.2819 146.025 8.09961C146.764 7.91732 147.525 7.82617 148.309 7.82617C149.092 7.82617 149.854 7.91732 150.592 8.09961C151.339 8.2819 152.036 8.54167 152.684 8.87891C153.34 9.21615 153.941 9.63086 154.488 10.123C155.035 10.6061 155.5 11.153 155.883 11.7637C156.275 12.3743 156.58 13.0443 156.799 13.7734C157.018 14.4935 157.127 15.2591 157.127 16.0703ZM152.424 16.0703C152.424 15.6328 152.396 15.1725 152.342 14.6895C152.296 14.1973 152.214 13.7188 152.096 13.2539C151.977 12.7799 151.813 12.3288 151.604 11.9004C151.403 11.4629 151.152 11.0846 150.852 10.7656C150.551 10.4375 150.191 10.1777 149.771 9.98633C149.352 9.78581 148.865 9.68555 148.309 9.68555C147.78 9.68555 147.311 9.78581 146.9 9.98633C146.49 10.1868 146.13 10.4557 145.82 10.793C145.52 11.1211 145.264 11.5039 145.055 11.9414C144.854 12.3789 144.69 12.8346 144.562 13.3086C144.435 13.7734 144.344 14.2474 144.289 14.7305C144.234 15.2044 144.207 15.651 144.207 16.0703C144.207 16.4896 144.234 16.9408 144.289 17.4238C144.344 17.8978 144.435 18.3717 144.562 18.8457C144.69 19.3197 144.854 19.7754 145.055 20.2129C145.264 20.6413 145.52 21.0241 145.82 21.3613C146.13 21.6895 146.49 21.9538 146.9 22.1543C147.311 22.3548 147.78 22.4551 148.309 22.4551C148.855 22.4551 149.339 22.3594 149.758 22.168C150.177 21.9674 150.537 21.7031 150.838 21.375C151.148 21.0469 151.403 20.6686 151.604 20.2402C151.804 19.8118 151.964 19.3607 152.082 18.8867C152.21 18.4128 152.296 17.9342 152.342 17.4512C152.396 16.9681 152.424 16.5078 152.424 16.0703ZM164.674 24H160.053V0.935547H161.83L164.674 5.73438V24Z" fill="black"/>
</svg>
