<svg width="28" height="28" viewBox="0 0 28 28" fill="none" xmlns="http://www.w3.org/2000/svg">
<circle cx="14" cy="14" r="13.5" stroke="#373A3B"/>
<path d="M17.125 10.5C16.4863 10.4978 15.8534 10.6215 15.2626 10.8642C14.6718 11.1068 14.1346 11.4636 13.6818 11.9141C13.229 12.3646 12.8695 12.8999 12.6238 13.4895C12.3781 14.079 12.2511 14.7113 12.25 15.35V20.25C12.25 20.4489 12.329 20.6396 12.4697 20.7803C12.6103 20.921 12.8011 21 13 21H14.75C14.9489 21 15.1397 20.921 15.2803 20.7803C15.421 20.6396 15.5 20.4489 15.5 20.25V15.35C15.4998 15.1228 15.5475 14.8982 15.64 14.6907C15.7325 14.4832 15.8677 14.2975 16.0367 14.1458C16.2058 13.994 16.4049 13.8796 16.6211 13.81C16.8374 13.7403 17.0658 13.717 17.2917 13.7416C17.6967 13.7926 18.0689 13.9905 18.3377 14.2977C18.6065 14.6049 18.7532 15.0001 18.75 15.4083V20.25C18.75 20.4489 18.829 20.6396 18.9697 20.7803C19.1103 20.921 19.3011 21 19.5 21H21.25C21.4489 21 21.6397 20.921 21.7803 20.7803C21.921 20.6396 22 20.4489 22 20.25V15.35C21.9989 14.7113 21.8719 14.079 21.6262 13.4895C21.3805 12.8999 21.021 12.3646 20.5682 11.9141C20.1154 11.4636 19.5782 11.1068 18.9874 10.8642C18.3966 10.6215 17.7637 10.4978 17.125 10.5Z" fill="#373A3B"/>
<path d="M10 11.2499H7.75C7.33579 11.2499 7 11.5857 7 11.9999V20.2499C7 20.6642 7.33579 20.9999 7.75 20.9999H10C10.4142 20.9999 10.75 20.6642 10.75 20.2499V11.9999C10.75 11.5857 10.4142 11.2499 10 11.2499Z" fill="#373A3B"/>
<path d="M8.875 9.75C9.91053 9.75 10.75 8.91053 10.75 7.875C10.75 6.83947 9.91053 6 8.875 6C7.83947 6 7 6.83947 7 7.875C7 8.91053 7.83947 9.75 8.875 9.75Z" fill="#373A3B"/>
</svg>
