<svg width="1920" height="1226" viewBox="0 0 1920 1226" fill="none" xmlns="http://www.w3.org/2000/svg">
<g clip-path="url(#clip0_452_1198)">
<rect width="1920" height="1226" fill="#28A9F2"/>
<g opacity="0.1">
<path d="M1885 371.499C1885 457.724 1771.05 360.856 1717.05 495.943C1706.41 522.551 1682.17 544.043 1654.43 536.826C1590.67 520.229 1540.94 471.75 1525.78 410.735C1520.82 390.729 1539.89 375.281 1560.44 376.798C1700.88 387.155 1610.1 268 1703 268C1803.52 268 1885 276.782 1885 371.499Z" fill="white"/>
<ellipse cx="1822" cy="482" rx="47" ry="50" fill="white"/>
<ellipse cx="1591" cy="301" rx="47" ry="50" fill="white"/>
<ellipse cx="1748.5" cy="543.191" rx="26.5" ry="28.1915" fill="white"/>
</g>
<g opacity="0.1">
<path d="M1057.85 482.284C1057.85 549.149 972.095 478.22 927.59 572.64C915.372 598.561 891.366 620.608 864.164 611.594C820.409 597.094 786.233 563.432 772.978 521.296C766.792 501.633 785.779 486.272 806.381 486.941C907.288 490.219 840.002 399.584 912.426 399.584C992.742 399.584 1057.85 406.601 1057.85 482.284Z" fill="white"/>
<ellipse cx="1007.51" cy="570.579" rx="37.5551" ry="39.9522" fill="white"/>
<ellipse cx="822.933" cy="425.952" rx="37.5551" ry="39.9522" fill="white"/>
<ellipse cx="948.782" cy="619.474" rx="21.1747" ry="22.5262" fill="white"/>
</g>
<g opacity="0.1">
<path d="M1057.85 1209.28C1057.85 1276.15 972.095 1205.22 927.59 1299.64C915.372 1325.56 891.366 1347.61 864.164 1338.59C820.409 1324.09 786.233 1290.43 772.978 1248.3C766.792 1228.63 785.779 1213.27 806.381 1213.94C907.288 1217.22 840.002 1126.58 912.426 1126.58C992.742 1126.58 1057.85 1133.6 1057.85 1209.28Z" fill="white"/>
<ellipse cx="822.933" cy="1152.95" rx="37.5551" ry="39.9522" fill="white"/>
</g>
<g opacity="0.1">
<path d="M568 972.65C568 1043.24 474.711 963.937 430.499 1074.53C421.79 1096.31 401.944 1113.91 379.24 1108C327.034 1094.41 286.324 1054.72 273.917 1004.77C269.849 988.394 285.462 975.747 302.292 976.988C417.261 985.468 342.947 887.917 419 887.917C501.29 887.917 568 895.107 568 972.65Z" fill="white"/>
<ellipse cx="516.423" cy="1063.12" rx="38.478" ry="40.9341" fill="white"/>
<ellipse cx="327.308" cy="914.934" rx="38.478" ry="40.9341" fill="white"/>
<ellipse cx="456.25" cy="1113.21" rx="21.6951" ry="23.0798" fill="white"/>
</g>
<g opacity="0.1">
<path d="M1580.42 996.691C1580.42 1042.98 1519.24 990.977 1490.25 1063.5C1484.54 1077.78 1471.52 1089.32 1456.64 1085.45C1422.4 1076.54 1395.7 1050.51 1387.57 1017.75C1384.9 1007.01 1395.14 998.721 1406.18 999.535C1481.57 1005.1 1432.84 941.126 1482.71 941.126C1536.67 941.126 1580.42 945.841 1580.42 996.691Z" fill="white"/>
<ellipse cx="1546.59" cy="1056.01" rx="25.2323" ry="26.8429" fill="white"/>
<ellipse cx="1422.58" cy="958.843" rx="25.2323" ry="26.8429" fill="white"/>
<ellipse cx="1507.13" cy="1088.87" rx="14.2267" ry="15.1348" fill="white"/>
</g>
<g opacity="0.1">
<path d="M449 225.499C449 311.724 335.05 214.856 281.045 349.943C270.408 376.551 246.167 398.043 218.435 390.826C154.666 374.229 104.939 325.75 89.7849 264.735C84.8161 244.729 103.887 229.281 124.444 230.798C264.876 241.155 174.103 122 267 122C367.516 122 449 130.782 449 225.499Z" fill="white"/>
<ellipse cx="386" cy="336" rx="47" ry="50" fill="white"/>
<ellipse cx="155" cy="155" rx="47" ry="50" fill="white"/>
<ellipse cx="312.5" cy="397.191" rx="26.5" ry="28.1915" fill="white"/>
</g>
<g opacity="0.1">
<path d="M1042 59.4992C1042 145.724 928.05 48.8556 874.045 183.943C863.408 210.551 839.167 232.043 811.435 224.826C747.666 208.229 697.939 159.75 682.785 98.7345C677.816 78.7294 696.887 63.2815 717.444 64.7977C857.876 75.1551 767.103 -44 860 -44C960.516 -44 1042 -35.2176 1042 59.4992Z" fill="white"/>
<ellipse cx="979" cy="170" rx="47" ry="50" fill="white"/>
<ellipse cx="748" cy="-11" rx="47" ry="50" fill="white"/>
<ellipse cx="905.5" cy="231.191" rx="26.5" ry="28.1915" fill="white"/>
</g>
</g>
<defs>
<clipPath id="clip0_452_1198">
<rect width="1920" height="1226" fill="white"/>
</clipPath>
</defs>
</svg>
