<svg width="43" height="43" viewBox="0 0 54 54" fill="none" xmlns="http://www.w3.org/2000/svg">
<circle cx="27" cy="27" r="27" fill="#28A9F2"/>
<path d="M27.9102 10.5535C28.401 10.2892 29.6542 10.3043 30.7414 12.4787C31.1189 13.1582 31.8286 14.5851 30.7414 14.8569H29.7222V15.4232C30.5149 15.3477 32.2589 15.2873 32.8931 15.6497L34.3653 16.8954C35.6488 18.1411 38.0119 20.8364 37.1965 21.6518L32.1004 23.2372L31.7606 26.7479L37.7628 30.0321C38.178 30.2208 38.8499 30.8928 38.2158 32.0705L35.2713 35.3547L31.3077 39.6581V40.2244C30.8924 40.7906 30.0619 42.0816 30.0619 42.7158H29.0427V38.2992H30.9679C31.7606 36.525 33.6632 32.75 34.9316 31.8441L30.5149 31.1646C30.2884 32.2593 29.5183 34.6299 28.25 35.3547L24.7393 38.6389L17.4914 43.0556V43.5086C17.114 43.5086 16.359 43.735 16.359 44.641L17.0385 45.3205V46H16.359C15.9815 45.849 15.1812 45.3205 15 44.4145L15.2265 41.9231H17.0385L19.0769 39.6581C19.9451 38.5257 22.1119 36.2607 23.8333 36.2607C23.8333 35.9587 23.9013 35.2415 24.1731 34.7885L25.8718 30.3718C25.6075 30.1831 25.1923 29.4432 25.6453 27.9936V25.9552L25.079 21.9915L23.4936 19.8398C21.5306 19.5756 17.4461 18.6847 16.812 17.2351C17.3027 15.8384 18.5333 12.8864 19.5299 12.2522V11.686C19.3034 11.5727 18.6692 11.0971 17.9444 10.1005C19.3789 9.27004 22.5649 8.10737 23.8333 10.1005C23.7956 10.629 23.3124 11.7313 21.6816 11.9125C21.0776 12.29 19.8696 13.2035 19.8696 13.8377C19.7564 14.6304 19.4393 16.3518 19.0769 16.8954H19.8696C20.9644 16.7066 23.5389 16.1932 25.079 15.6497H27.2307V14.1774C26.589 14.0264 25.4867 13.3168 26.2115 11.686C26.287 11.384 26.7325 10.7347 27.9102 10.5535Z" fill="white" stroke="#A58585" stroke-width="0.113248"/>
</svg>
