<svg width="44" height="44" viewBox="0 0 54 54" fill="none" xmlns="http://www.w3.org/2000/svg">
<circle cx="27" cy="27" r="27" fill="#28A9F2"/>
<path d="M36.25 18.5C36.4489 18.5 36.6397 18.579 36.7803 18.7197C36.921 18.8603 37 19.0511 37 19.25V30.5H19V19.25C19 19.0511 19.079 18.8603 19.2197 18.7197C19.3603 18.579 19.5511 18.5 19.75 18.5H36.25ZM19.75 17C19.1533 17 18.581 17.2371 18.159 17.659C17.7371 18.081 17.5 18.6533 17.5 19.25V32H38.5V19.25C38.5 18.6533 38.2629 18.081 37.841 17.659C37.419 17.2371 36.8467 17 36.25 17H19.75ZM16 32.75H40C40 33.3467 39.7629 33.919 39.341 34.341C38.919 34.7629 38.3467 35 37.75 35H18.25C17.6533 35 17.081 34.7629 16.659 34.341C16.2371 33.919 16 33.3467 16 32.75V32.75Z" fill="white"/>
<rect x="19" y="18.5" width="18" height="12" fill="white"/>
</svg>
