<svg width="1931" height="957" opacity="0.6" viewBox="0 0 1931 957" fill="none" xmlns="http://www.w3.org/2000/svg">
<g clip-path="url(#clip0_437_1213)">
<g opacity="0.06">
<path d="M1845.41 376.275C1852.35 468.916 1722.12 374.005 1674.97 523.488C1665.68 552.932 1641.36 577.974 1610.99 572.45C1541.14 559.747 1483.81 511.661 1462.62 447.324C1455.67 426.23 1474.92 408.099 1497.13 408.074C1648.85 407.906 1541.73 287.186 1641.54 279.714C1749.54 271.629 1837.79 274.511 1845.41 376.275Z" fill="#717171"/>
<ellipse cx="1804.79" cy="498.576" rx="50.6386" ry="53.8709" transform="rotate(-4.2815 1804.79 498.576)" fill="#717171"/>
<ellipse cx="1520.23" cy="607.443" rx="50.6386" ry="53.8709" transform="rotate(-4.2815 1520.23 607.443)" fill="#717171"/>
<ellipse cx="1730.74" cy="570.233" rx="28.5516" ry="30.374" transform="rotate(-4.2815 1730.74 570.233)" fill="#717171"/>
</g>
<g opacity="0.06">
<path d="M2071.41 881.275C2078.35 973.916 1948.12 879.005 1900.97 1028.49C1891.68 1057.93 1867.36 1082.97 1836.99 1077.45C1767.14 1064.75 1709.81 1016.66 1688.62 952.324C1681.67 931.23 1700.92 913.099 1723.13 913.074C1874.85 912.906 1767.73 792.186 1867.54 784.714C1975.54 776.629 2063.79 779.511 2071.41 881.275Z" fill="#717171"/>
</g>
<g opacity="0.06">
<path d="M770 189.499C770 275.724 656.05 178.856 602.045 313.943C591.408 340.551 567.167 362.043 539.435 354.826C475.666 338.229 425.939 289.75 410.785 228.735C405.816 208.729 424.887 193.281 445.444 194.798C585.876 205.155 495.103 86 588 86C688.516 86 770 94.7824 770 189.499Z" fill="#717171"/>
<ellipse cx="707" cy="300" rx="47" ry="50" fill="#717171"/>
<ellipse cx="476" cy="119" rx="47" ry="50" fill="#717171"/>
<ellipse cx="633.5" cy="361.191" rx="26.5" ry="28.1915" fill="#717171"/>
</g>
<g opacity="0.06">
<path d="M201 260.499C201 346.724 87.0495 249.856 33.0452 384.943C22.4077 411.551 -1.83308 433.043 -29.5654 425.826C-93.3341 409.229 -143.061 360.75 -158.215 299.735C-163.184 279.729 -144.113 264.281 -123.556 265.798C16.8763 276.155 -73.8974 157 19 157C119.516 157 201 165.782 201 260.499Z" fill="#717171"/>
<ellipse cx="138" cy="371" rx="47" ry="50" fill="#717171"/>
<ellipse cx="64.5" cy="432.191" rx="26.5" ry="28.1915" fill="#717171"/>
</g>
<g opacity="0.06">
<path d="M1443 5.49922C1443 91.7244 1329.05 -5.1444 1275.05 129.943C1264.41 156.551 1240.17 178.043 1212.43 170.826C1148.67 154.229 1098.94 105.75 1083.78 44.7345C1078.82 24.7294 1097.89 9.28149 1118.44 10.7977C1258.88 21.1551 1168.1 -98 1261 -98C1361.52 -98 1443 -89.2176 1443 5.49922Z" fill="#717171"/>
<ellipse cx="1380" cy="116" rx="47" ry="50" fill="#717171"/>
<ellipse cx="1306.5" cy="177.191" rx="26.5" ry="28.1915" fill="#717171"/>
</g>
<g opacity="0.06">
<path d="M1189 592.499C1189 678.724 1075.05 581.856 1021.05 716.943C1010.41 743.551 986.167 765.043 958.435 757.826C894.666 741.229 844.939 692.75 829.785 631.735C824.816 611.729 843.887 596.281 864.444 597.798C1004.88 608.155 914.103 489 1007 489C1107.52 489 1189 497.782 1189 592.499Z" fill="#717171"/>
<ellipse cx="1126" cy="703" rx="47" ry="50" fill="#717171"/>
<ellipse cx="895" cy="522" rx="47" ry="50" fill="#717171"/>
<ellipse cx="1052.5" cy="764.191" rx="26.5" ry="28.1915" fill="#717171"/>
</g>
<g opacity="0.05">
<path d="M484 741.299C484 813.785 388.206 732.351 342.807 845.913C333.865 868.282 313.486 886.35 290.173 880.282C236.565 866.33 194.762 825.576 182.022 774.283C177.845 757.465 193.877 744.479 211.159 745.753C329.215 754.46 252.905 654.292 331 654.292C415.5 654.292 484 661.674 484 741.299Z" fill="#717171"/>
<ellipse cx="431.038" cy="834.193" rx="39.511" ry="42.033" fill="#B0B2B4"/>
<ellipse cx="236.846" cy="682.033" rx="39.511" ry="42.033" fill="#B0B2B4"/>
<ellipse cx="369.25" cy="885.634" rx="22.2775" ry="23.6994" fill="#B0B2B4"/>
</g>
</g>
<defs>
<clipPath id="clip0_437_1213">
<rect width="1931" height="957" fill="white"/>
</clipPath>
</defs>
</svg>
