<svg width="28" height="28" viewBox="0 0 28 28" fill="none" xmlns="http://www.w3.org/2000/svg">
<g id="Frame 5">
<g id="Group 6">
<path id="Vector" d="M24.668 8.892C24.129 9.695 23.447 10.41 22.655 10.982C22.666 11.147 22.666 11.323 22.666 11.499C22.666 16.834 18.607 22.983 11.193 22.983C8.916 22.983 6.793 22.312 5 21.168C5.319 21.201 5.638 21.223 5.968 21.223C7.86 21.223 9.598 20.574 10.973 19.496C10.1319 19.4786 9.31719 19.1989 8.64273 18.696C7.96827 18.1932 7.46773 17.4922 7.211 16.691C7.453 16.735 7.706 16.768 7.97 16.768C8.333 16.768 8.696 16.713 9.026 16.625C8.11366 16.4377 7.29381 15.9416 6.70469 15.2202C6.11557 14.4988 5.79322 13.5964 5.792 12.665V12.621C6.342 12.918 6.958 13.105 7.618 13.127C7.06558 12.7564 6.61299 12.2555 6.30026 11.6684C5.98753 11.0813 5.8243 10.4262 5.825 9.761C5.825 9.024 6.023 8.331 6.375 7.737C8.366 10.179 11.336 11.785 14.691 11.95C14.625 11.653 14.581 11.345 14.581 11.026C14.5839 9.95723 15.0105 8.93323 15.7673 8.17852C16.5241 7.42381 17.5492 7 18.618 7C19.784 7 20.829 7.484 21.566 8.276C22.479 8.089 23.348 7.759 24.129 7.297C23.821 8.232 23.183 9.024 22.347 9.519C23.1485 9.4314 23.9315 9.21988 24.668 8.892Z" fill="#373A3B"/>
<circle id="Ellipse 5" cx="14" cy="14" r="13.5" stroke="#373A3B"/>
</g>
</g>
</svg>
