<svg width="1920" opacity="0.5" height="1044" viewBox="0 0 1920 1044" fill="none" xmlns="http://www.w3.org/2000/svg">
<g clip-path="url(#clip0_487_1204)">
<g opacity="0.1">
<circle cx="879.755" cy="647.696" r="221.967" transform="rotate(171.588 879.755 647.696)" stroke="white" stroke-width="38.6029"/>
<circle cx="1236.42" cy="460.325" r="90.0734" transform="rotate(171.588 1236.42 460.325)" stroke="white" stroke-width="36.0294"/>
<circle cx="964.225" cy="246.929" r="123.529" transform="rotate(171.588 964.225 246.929)" stroke="white" stroke-width="38.6029"/>
</g>
<g opacity="0.2">
<circle cx="77.5181" cy="205.427" r="112.136" transform="rotate(171.588 77.5181 205.427)" stroke="white" stroke-width="19.502"/>
<circle cx="257.704" cy="110.768" r="45.5047" transform="rotate(171.588 257.704 110.768)" stroke="white" stroke-width="18.2019"/>
<circle cx="120.191" cy="2.9616" r="62.4064" transform="rotate(171.588 120.191 2.9616)" stroke="white" stroke-width="19.502"/>
</g>
<g opacity="0.2">
<circle cx="1932.66" cy="986.72" r="112.136" transform="rotate(77.0682 1932.66 986.72)" stroke="white" stroke-width="19.502"/>
<circle cx="1824.1" cy="814.555" r="45.5047" transform="rotate(77.0682 1824.1 814.555)" stroke="white" stroke-width="18.2019"/>
<circle cx="1727.46" cy="960.136" r="62.4064" transform="rotate(77.0682 1727.46 960.136)" stroke="white" stroke-width="19.502"/>
</g>
<circle cx="1870.44" cy="38.3946" r="102.879" transform="rotate(-5.14019 1870.44 38.3946)" stroke="#28A9F2" stroke-width="17.8921"/>
<circle cx="1700.45" cy="115.663" r="41.7482" transform="rotate(-5.14019 1700.45 115.663)" stroke="#28A9F2" stroke-width="16.6993"/>
<circle cx="1820.76" cy="221.609" r="57.2546" transform="rotate(-5.14019 1820.76 221.609)" stroke="#28A9F2" stroke-width="17.8921"/>
<circle cx="75.2903" cy="1010.84" r="141.501" transform="rotate(171.588 75.2903 1010.84)" stroke="#28A9F2" stroke-width="24.6088"/>
<circle cx="302.659" cy="891.39" r="57.4206" transform="rotate(171.588 302.659 891.39)" stroke="#28A9F2" stroke-width="22.9682"/>
<circle cx="129.138" cy="755.353" r="78.7482" transform="rotate(171.588 129.138 755.353)" stroke="#28A9F2" stroke-width="24.6088"/>
</g>
<defs>
<clipPath id="clip0_487_1204">
<rect width="1920" height="1044" fill="white"/>
</clipPath>
</defs>
</svg>
